<svg width="24" height="24" viewBox="0 0 24 24" fill="none" xmlns="http://www.w3.org/2000/svg">
<path d="M21.2403 6.62078L12.4081 2.14564L12.4045 2.1438C12.0112 1.94801 11.5439 1.95238 11.1543 2.15552L7.36625 4.16595C7.33547 4.179 7.3059 4.19482 7.27758 4.21302L2.73817 6.62223C2.28283 6.86064 2 7.32778 2 7.84191V16.1581C2 16.6722 2.28283 17.1393 2.73817 17.3777L11.1506 21.8425L11.1544 21.8445C11.353 21.9481 11.572 22 11.791 22C12.0014 22 12.2118 21.9521 12.4045 21.8562L21.2403 17.3792C21.7097 17.1444 22.0012 16.6729 22.0012 16.1479V7.8521C22.0012 7.32711 21.7097 6.85548 21.2403 6.62078ZM11.6973 3.19359C11.7547 3.16413 11.8232 3.16355 11.8811 3.19195L20.1484 7.38086L16.9308 8.98272L8.84837 4.70563L11.6973 3.19359ZM11.1968 20.5407L3.28562 16.3419L3.28183 16.3399C3.21382 16.3044 3.17151 16.2348 3.17151 16.1581V8.37053L11.1968 12.5553V20.5407ZM11.7887 11.5427L3.80761 7.38098L7.59783 5.36942L15.6403 9.62525L11.7887 11.5427ZM20.8296 16.1478C20.8296 16.2262 20.786 16.2966 20.7159 16.3315L12.3683 20.5611V12.5628L16.2118 10.6494V12.6555C16.2118 12.979 16.4741 13.2413 16.7975 13.2413C17.121 13.2413 17.3833 12.979 17.3833 12.6555V10.0661L20.8296 8.35037V16.1478Z" fill="#777777" stroke="#777777" stroke-width="0.5"/>
</svg>
