<svg width="19" height="22" viewBox="0 0 19 22" fill="none" xmlns="http://www.w3.org/2000/svg">
<path d="M17.9782 6.14962C17.9678 5.60965 17.9579 5.09955 17.9579 4.60606C17.9579 4.21945 17.6409 3.90601 17.2497 3.90601C14.2212 3.90601 11.9153 3.0456 9.9933 1.19822C9.71835 0.93388 9.28081 0.933974 9.00595 1.19822C7.08411 3.0456 4.77864 3.90601 1.75028 3.90601C1.35919 3.90601 1.04213 4.21945 1.04213 4.60606C1.04213 5.09964 1.03231 5.60993 1.02183 6.14999C0.924763 11.175 0.791819 18.0571 9.26768 20.9614C9.34284 20.9871 9.42121 21 9.49958 21C9.57795 21 9.65641 20.9871 9.73148 20.9614C18.208 18.057 18.0752 11.1748 17.9782 6.14962ZM9.49967 19.5571C2.23051 16.9466 2.34041 11.2282 2.43795 6.17669C2.4438 5.87352 2.44947 5.57969 2.45343 5.29164C5.28983 5.17329 7.55801 4.32361 9.49967 2.65152C11.4415 4.32361 13.7101 5.17338 16.5467 5.29164C16.5506 5.57959 16.5563 5.87324 16.5622 6.17622C16.6596 11.2279 16.7694 16.9465 9.49967 19.5571Z" fill="#777777" stroke="#777777" stroke-width="0.5"/>
<path d="M11.9383 8.56828L8.52039 11.9469L7.06187 10.5051C6.78531 10.2318 6.33691 10.2318 6.06045 10.5051C5.78389 10.7786 5.78389 11.2217 6.06045 11.4951L8.01967 13.4319C8.15791 13.5686 8.33919 13.6369 8.52039 13.6369C8.70158 13.6369 8.88287 13.5686 9.0211 13.4319L12.9397 9.55834C13.2163 9.28494 13.2163 8.84167 12.9397 8.56837C12.6633 8.29498 12.2149 8.29489 11.9383 8.56828Z" fill="#777777" stroke="#777777" stroke-width="0.5"/>
</svg>
