<svg width="22" height="22" viewBox="0 0 22 22" fill="none" xmlns="http://www.w3.org/2000/svg">
<path fill-rule="evenodd" clip-rule="evenodd" d="M18.0711 3.92895C16.1823 2.0402 13.6711 1 11 1C8.32892 1 5.81774 2.0402 3.92895 3.92895C2.04016 5.8177 1 8.32891 1 11C1 13.6711 2.04024 16.1823 3.92895 18.0711C5.81771 19.9598 8.32896 21 11 21C13.6711 21 16.1823 19.9598 18.0711 18.0711C19.9598 16.1823 21 13.6711 21 11C21 8.32883 19.9598 5.8177 18.0711 3.92895ZM17.2428 17.2427C15.5753 18.9102 13.3582 19.8285 11.0001 19.8285C8.64189 19.8285 6.42485 18.9102 4.75735 17.2427C3.08985 15.5752 2.17149 13.3582 2.17149 11C2.17149 8.6418 3.08981 6.4248 4.75731 4.7573C6.42482 3.0898 8.64185 2.17148 11 2.17148C13.3582 2.17148 15.5753 3.0898 17.2428 4.7573C18.9103 6.4248 19.8286 8.64184 19.8286 11C19.8286 13.3582 18.9102 15.5752 17.2428 17.2427ZM12.8322 11.4856C12.6881 11.2126 12.5095 11.004 12.2965 10.8599C12.0833 10.7159 11.8522 10.5823 11.6031 10.4592C11.3539 10.3363 11.1228 10.2341 10.9098 10.1531C10.6967 10.072 10.5181 9.96712 10.3741 9.83794C10.23 9.70892 10.158 9.55739 10.158 9.38321C10.158 9.16712 10.2464 8.99759 10.4236 8.87446C10.6006 8.7515 10.8513 8.68989 11.1755 8.68989C11.4695 8.68989 11.7367 8.74704 11.9768 8.86099C12.2168 8.97509 12.3641 9.03208 12.4181 9.03208C12.5621 9.03208 12.6761 8.96075 12.7602 8.81798C12.8442 8.67517 12.8863 8.53685 12.8863 8.40321C12.8863 8.26138 12.8247 8.13814 12.7017 8.03333C12.5786 7.92868 12.4195 7.85157 12.2245 7.8022C12.0293 7.75294 11.8447 7.71751 11.6707 7.69583C11.6294 7.69071 11.5886 7.6863 11.5483 7.68239V6.72575C11.5483 6.40228 11.2861 6.14001 10.9626 6.14001C10.6391 6.14001 10.3768 6.40228 10.3768 6.72575V7.76364C10.1364 7.82779 9.91039 7.92685 9.69879 8.06099C9.4827 8.19802 9.31004 8.38993 9.18102 8.63669C9.05184 8.88345 8.98742 9.16833 8.98742 9.49126C8.98742 9.77943 9.03992 10.036 9.145 10.2611C9.24996 10.4862 9.38813 10.6663 9.55918 10.8013C9.73024 10.9364 9.91938 11.058 10.1264 11.166C10.3335 11.2741 10.539 11.3717 10.7432 11.4586C10.9472 11.5457 11.1349 11.6358 11.306 11.7288C11.4771 11.8219 11.6151 11.939 11.7202 12.0799C11.8251 12.2211 11.8777 12.3816 11.8777 12.5617C11.8777 12.8199 11.7816 13.015 11.5896 13.1469C11.3974 13.279 11.1574 13.345 10.8692 13.345C10.659 13.345 10.467 13.3076 10.293 13.2327C10.1188 13.1579 9.98528 13.0753 9.89223 12.9849C9.7991 12.8945 9.70317 12.8118 9.60406 12.7369C9.50504 12.6621 9.41641 12.6247 9.33844 12.6247C9.20629 12.6247 9.0877 12.6953 8.98277 12.8363C8.8777 12.9774 8.8252 13.117 8.8252 13.2549C8.8252 13.5311 9.02922 13.7861 9.4375 14.0203C9.71348 14.1786 10.0266 14.2831 10.3767 14.3344V15.2368C10.3767 15.5603 10.639 15.8226 10.9625 15.8226C11.2859 15.8226 11.5482 15.5603 11.5482 15.2368V14.3065C11.9027 14.2296 12.2063 14.0843 12.4585 13.8697C12.8516 13.5353 13.0483 13.0602 13.0483 12.4445C13.0483 12.0785 12.9763 11.7588 12.8322 11.4856ZM3.38318 11C3.38318 6.80015 6.80002 3.38335 10.9999 3.38335C15.1997 3.38335 18.6166 6.80019 18.6166 11C18.6166 15.1999 15.1997 18.6167 10.9999 18.6167C6.80002 18.6167 3.38318 15.1999 3.38318 11ZM4.55467 11C4.55467 14.5539 7.44596 17.4452 10.9999 17.4452C14.5538 17.4452 17.4451 14.5539 17.4451 11C17.4451 7.44612 14.5537 4.55484 10.9999 4.55484C7.446 4.55484 4.55467 7.44612 4.55467 11Z" fill="#777777"/>
<path d="M18.0711 3.92895L18.2479 3.75217L18.2479 3.75217L18.0711 3.92895ZM3.92895 3.92895L4.10573 4.10572L3.92895 3.92895ZM3.92895 18.0711L3.75217 18.2478L3.75217 18.2478L3.92895 18.0711ZM18.0711 18.0711L17.8943 17.8943L17.8943 17.8943L18.0711 18.0711ZM17.2428 17.2427L17.4195 17.4195L17.4195 17.4195L17.2428 17.2427ZM4.75731 4.7573L4.93409 4.93408H4.93409L4.75731 4.7573ZM17.2428 4.7573L17.4195 4.58053L17.2428 4.7573ZM12.2965 10.8599L12.4366 10.6529L12.4365 10.6528L12.2965 10.8599ZM12.8322 11.4856L13.0533 11.369L13.0533 11.3689L12.8322 11.4856ZM11.6031 10.4592L11.7139 10.2351L11.7138 10.235L11.6031 10.4592ZM10.9098 10.1531L10.9987 9.91943L10.9987 9.91943L10.9098 10.1531ZM10.3741 9.83794L10.541 9.65181L10.5409 9.65171L10.3741 9.83794ZM10.4236 8.87446L10.281 8.66915L10.2809 8.66918L10.4236 8.87446ZM11.9768 8.86099L12.0842 8.63521L12.084 8.63513L11.9768 8.86099ZM12.7602 8.81798L12.9756 8.94491L12.9758 8.94467L12.7602 8.81798ZM12.7017 8.03333L12.8639 7.84304L12.8637 7.84287L12.7017 8.03333ZM12.2245 7.8022L12.2859 7.55985L12.2857 7.5598L12.2245 7.8022ZM11.6707 7.69583L11.7016 7.44775L11.7014 7.44773L11.6707 7.69583ZM11.5483 7.68239H11.2983V7.90934L11.5242 7.93123L11.5483 7.68239ZM10.3768 7.76364L10.4413 8.0052L10.6268 7.9557V7.76364H10.3768ZM9.69879 8.06099L9.56494 7.84984L9.56491 7.84986L9.69879 8.06099ZM9.18102 8.63669L9.4025 8.75264L9.40256 8.75253L9.18102 8.63669ZM9.145 10.2611L9.37158 10.1555L9.37154 10.1554L9.145 10.2611ZM10.1264 11.166L10.0107 11.3877L10.0108 11.3877L10.1264 11.166ZM10.7432 11.4586L10.8414 11.2287L10.8411 11.2286L10.7432 11.4586ZM11.306 11.7288L11.4255 11.5092L11.4254 11.5091L11.306 11.7288ZM11.7202 12.0799L11.9208 11.9307L11.9206 11.9305L11.7202 12.0799ZM11.5896 13.1469L11.448 12.9409L11.448 12.9409L11.5896 13.1469ZM10.293 13.2327L10.3918 13.0031L10.3917 13.003L10.293 13.2327ZM9.89223 12.9849L10.0665 12.8056L10.0663 12.8054L9.89223 12.9849ZM9.60406 12.7369L9.45332 12.9364L9.4534 12.9364L9.60406 12.7369ZM8.98277 12.8363L9.1833 12.9856L9.18333 12.9855L8.98277 12.8363ZM9.4375 14.0203L9.56188 13.8034L9.56187 13.8034L9.4375 14.0203ZM10.3767 14.3344H10.6267V14.1183L10.4129 14.087L10.3767 14.3344ZM11.5482 14.3065L11.4952 14.0622L11.2982 14.1049V14.3065H11.5482ZM12.4585 13.8697L12.2965 13.6793L12.2965 13.6793L12.4585 13.8697ZM11 1.25C13.6048 1.25 16.0524 2.26386 17.8944 4.10572L18.2479 3.75217C16.3122 1.81654 13.7374 0.75 11 0.75V1.25ZM4.10573 4.10572C5.94764 2.26385 8.39523 1.25 11 1.25V0.75C8.26261 0.75 5.68785 1.81654 3.75218 3.75217L4.10573 4.10572ZM1.25 11C1.25 8.39521 2.26382 5.94759 4.10573 4.10572L3.75218 3.75217C1.8165 5.6878 0.75 8.2626 0.75 11H1.25ZM4.10573 17.8943C2.26389 16.0524 1.25 13.6048 1.25 11H0.75C0.75 13.7374 1.81658 16.3122 3.75217 18.2478L4.10573 17.8943ZM11 20.75C8.39526 20.75 5.9476 19.7362 4.10573 17.8943L3.75217 18.2478C5.68781 20.1835 8.26266 21.25 11 21.25V20.75ZM17.8943 17.8943C16.0524 19.7361 13.6048 20.75 11 20.75V21.25C13.7374 21.25 16.3122 20.1835 18.2478 18.2478L17.8943 17.8943ZM20.75 11C20.75 13.6048 19.7361 16.0524 17.8943 17.8943L18.2478 18.2478C20.1835 16.3122 21.25 13.7374 21.25 11H20.75ZM17.8943 4.10572C19.7362 5.94759 20.75 8.39513 20.75 11H21.25C21.25 8.26252 20.1835 5.6878 18.2479 3.75217L17.8943 4.10572ZM11.0001 20.0785C13.4245 20.0785 15.7052 19.1339 17.4195 17.4195L17.066 17.0659C15.4454 18.6865 13.2919 19.5785 11.0001 19.5785V20.0785ZM4.58057 17.4195C6.29496 19.1339 8.57559 20.0785 11.0001 20.0785V19.5785C8.70819 19.5785 6.55475 18.6865 4.93413 17.0659L4.58057 17.4195ZM1.92149 11C1.92149 13.4245 2.86619 15.7051 4.58057 17.4195L4.93413 17.0659C3.31351 15.4453 2.42149 13.2919 2.42149 11H1.92149ZM4.58054 4.58053C2.86615 6.29491 1.92149 8.57549 1.92149 11H2.42149C2.42149 8.7081 3.31347 6.5547 4.93409 4.93408L4.58054 4.58053ZM11 1.92148C8.57555 1.92148 6.29492 2.86614 4.58054 4.58053L4.93409 4.93408C6.55471 3.31347 8.70816 2.42148 11 2.42148V1.92148ZM17.4195 4.58053C15.7052 2.86614 13.4245 1.92148 11 1.92148V2.42148C13.2919 2.42148 15.4454 3.31347 17.066 4.93408L17.4195 4.58053ZM20.0786 11C20.0786 8.57553 19.1339 6.29491 17.4195 4.58053L17.066 4.93408C18.6866 6.5547 19.5786 8.70814 19.5786 11H20.0786ZM17.4195 17.4195C19.1339 15.7051 20.0786 13.4245 20.0786 11H19.5786C19.5786 13.2919 18.6866 15.4453 17.066 17.0659L17.4195 17.4195ZM12.1564 11.067C12.3292 11.1839 12.4824 11.3584 12.6111 11.6023L13.0533 11.3689C12.8939 11.0668 12.6897 10.8241 12.4366 10.6529L12.1564 11.067ZM11.4924 10.6834C11.7321 10.8018 11.9534 10.9298 12.1565 11.0671L12.4365 10.6528C12.2132 10.5019 11.9723 10.3628 11.7139 10.2351L11.4924 10.6834ZM10.8209 10.3868C11.0251 10.4644 11.2489 10.5632 11.4925 10.6834L11.7138 10.235C11.459 10.1093 11.2206 10.0038 10.9987 9.91943L10.8209 10.3868ZM10.2072 10.0241C10.3779 10.1771 10.5842 10.2968 10.8209 10.3868L10.9987 9.91943C10.8091 9.84733 10.6584 9.75711 10.541 9.65181L10.2072 10.0241ZM9.90797 9.38321C9.90797 9.63681 10.0168 9.85359 10.2073 10.0242L10.5409 9.65171C10.4432 9.56425 10.408 9.47797 10.408 9.38321H9.90797ZM10.2809 8.66918C10.0364 8.83915 9.90797 9.08546 9.90797 9.38321H10.408C10.408 9.24878 10.4565 9.15603 10.5663 9.07975L10.2809 8.66918ZM11.1755 8.43989C10.8244 8.43989 10.516 8.50583 10.281 8.66915L10.5662 9.07978C10.6851 8.99716 10.8781 8.93989 11.1755 8.93989V8.43989ZM12.084 8.63513C11.8071 8.5037 11.5027 8.43989 11.1755 8.43989V8.93989C11.4363 8.93989 11.6664 8.99038 11.8697 9.08685L12.084 8.63513ZM12.4181 8.78208C12.4401 8.78208 12.4478 8.78641 12.4283 8.78087C12.4134 8.77664 12.3903 8.76891 12.3576 8.75622C12.2923 8.73092 12.2018 8.69112 12.0842 8.63521L11.8695 9.08677C11.9919 9.14496 12.095 9.1907 12.1769 9.22242C12.2177 9.23824 12.2565 9.25189 12.2919 9.26192C12.3226 9.27063 12.369 9.28208 12.4181 9.28208V8.78208ZM12.5449 8.69105C12.4976 8.77124 12.4588 8.78208 12.4181 8.78208V9.28208C12.6654 9.28208 12.8546 9.15026 12.9756 8.94491L12.5449 8.69105ZM12.6363 8.40321C12.6363 8.48264 12.6116 8.57759 12.5447 8.69129L12.9758 8.94467C13.0768 8.77274 13.1363 8.59106 13.1363 8.40321H12.6363ZM12.5396 8.22363C12.6157 8.28844 12.6363 8.34545 12.6363 8.40321H13.1363C13.1363 8.17731 13.0338 7.98784 12.8639 7.84304L12.5396 8.22363ZM12.1631 8.04455C12.3299 8.08678 12.4521 8.1492 12.5398 8.2238L12.8637 7.84287C12.7052 7.70817 12.509 7.61637 12.2859 7.55985L12.1631 8.04455ZM11.6398 7.94391C11.8023 7.96416 11.9767 7.99751 12.1633 8.0446L12.2857 7.5598C12.0819 7.50838 11.8872 7.47086 11.7016 7.44775L11.6398 7.94391ZM11.5242 7.93123C11.5626 7.93495 11.6011 7.93913 11.64 7.94394L11.7014 7.44773C11.6576 7.4423 11.6146 7.43765 11.5724 7.43356L11.5242 7.93123ZM11.2983 6.72575V7.68239H11.7983V6.72575H11.2983ZM10.9626 6.39001C11.148 6.39001 11.2983 6.54035 11.2983 6.72575H11.7983C11.7983 6.26421 11.4241 5.89001 10.9626 5.89001V6.39001ZM10.6268 6.72575C10.6268 6.54035 10.7772 6.39001 10.9626 6.39001V5.89001C10.501 5.89001 10.1268 6.26421 10.1268 6.72575H10.6268ZM10.6268 7.76364V6.72575H10.1268V7.76364H10.6268ZM9.83264 8.27214C10.0229 8.15153 10.2255 8.06276 10.4413 8.0052L10.3124 7.52209C10.0473 7.59282 9.79788 7.70217 9.56494 7.84984L9.83264 8.27214ZM9.40256 8.75253C9.51307 8.54118 9.65686 8.38361 9.83267 8.27212L9.56491 7.84986C9.30853 8.01243 9.10701 8.23868 8.95947 8.52085L9.40256 8.75253ZM9.23742 9.49126C9.23742 9.20214 9.29488 8.95822 9.4025 8.75264L8.95953 8.52074C8.80879 8.80868 8.73742 9.13452 8.73742 9.49126H9.23742ZM9.37154 10.1554C9.2842 9.96826 9.23742 9.74872 9.23742 9.49126H8.73742C8.73742 9.81013 8.79564 10.1037 8.91847 10.3668L9.37154 10.1554ZM9.71409 10.6051C9.57763 10.4974 9.46233 10.3501 9.37158 10.1555L8.91842 10.3667C9.0376 10.6224 9.19862 10.8352 9.40427 10.9976L9.71409 10.6051ZM10.2421 10.9444C10.0479 10.8431 9.87205 10.7298 9.71409 10.6051L9.40427 10.9976C9.58843 11.1429 9.79085 11.2729 10.0107 11.3877L10.2421 10.9444ZM10.8411 11.2286C10.6434 11.1445 10.4438 11.0496 10.242 10.9444L10.0108 11.3877C10.2232 11.4985 10.4347 11.599 10.6453 11.6887L10.8411 11.2286ZM11.4254 11.5091C11.2465 11.4119 11.0516 11.3184 10.8414 11.2287L10.6451 11.6886C10.8429 11.773 11.0234 11.8597 11.1866 11.9484L11.4254 11.5091ZM11.9206 11.9305C11.7917 11.7576 11.6249 11.6177 11.4255 11.5092L11.1865 11.9483C11.3292 12.026 11.4384 12.1203 11.5197 12.2293L11.9206 11.9305ZM12.1277 12.5617C12.1277 12.329 12.0585 12.116 11.9208 11.9307L11.5196 12.2291C11.5917 12.3262 11.6277 12.4341 11.6277 12.5617H12.1277ZM11.7311 13.353C11.9992 13.1688 12.1277 12.8918 12.1277 12.5617H11.6277C11.6277 12.7479 11.5641 12.8611 11.448 12.9409L11.7311 13.353ZM10.8692 13.595C11.1959 13.595 11.4884 13.5198 11.7312 13.3529L11.448 12.9409C11.3064 13.0382 11.1189 13.095 10.8692 13.095V13.595ZM10.1942 13.4624C10.4026 13.5521 10.6288 13.595 10.8692 13.595V13.095C10.6893 13.095 10.5313 13.0631 10.3918 13.0031L10.1942 13.4624ZM9.71799 13.1641C9.84052 13.2832 10.0037 13.3806 10.1943 13.4624L10.3917 13.003C10.2338 12.9352 10.13 12.8674 10.0665 12.8056L9.71799 13.1641ZM9.4534 12.9364C9.54368 13.0046 9.63185 13.0806 9.71818 13.1643L10.0663 12.8054C9.96636 12.7085 9.86265 12.6189 9.75473 12.5374L9.4534 12.9364ZM9.33844 12.8747C9.33719 12.8747 9.3456 12.8744 9.36605 12.883C9.38676 12.8918 9.4158 12.908 9.45332 12.9364L9.75481 12.5375C9.63615 12.4478 9.49453 12.3747 9.33844 12.3747V12.8747ZM9.18333 12.9855C9.25807 12.8851 9.30999 12.8747 9.33844 12.8747V12.3747C9.10259 12.3747 8.91732 12.5055 8.78222 12.687L9.18333 12.9855ZM9.0752 13.2549C9.0752 13.1839 9.10147 13.0955 9.1833 12.9856L8.78225 12.687C8.65392 12.8593 8.5752 13.05 8.5752 13.2549H9.0752ZM9.56187 13.8034C9.175 13.5816 9.0752 13.3915 9.0752 13.2549H8.5752C8.5752 13.6707 8.88344 13.9907 9.31313 14.2372L9.56187 13.8034ZM10.4129 14.087C10.0903 14.0398 9.80766 13.9444 9.56188 13.8034L9.31312 14.2371C9.6193 14.4127 9.96294 14.5265 10.3405 14.5817L10.4129 14.087ZM10.6267 15.2368V14.3344H10.1267V15.2368H10.6267ZM10.9625 15.5726C10.7771 15.5726 10.6267 15.4223 10.6267 15.2368H10.1267C10.1267 15.6984 10.5009 16.0726 10.9625 16.0726V15.5726ZM11.2982 15.2368C11.2982 15.4223 11.1479 15.5726 10.9625 15.5726V16.0726C11.424 16.0726 11.7982 15.6984 11.7982 15.2368H11.2982ZM11.2982 14.3065V15.2368H11.7982V14.3065H11.2982ZM12.2965 13.6793C12.0788 13.8645 11.8137 13.9931 11.4952 14.0622L11.6012 14.5508C11.9918 14.4661 12.3339 14.304 12.6205 14.0601L12.2965 13.6793ZM12.7983 12.4445C12.7983 13.0024 12.6229 13.4016 12.2965 13.6793L12.6205 14.0602C13.0802 13.669 13.2983 13.118 13.2983 12.4445H12.7983ZM12.611 11.6022C12.7329 11.8334 12.7983 12.1116 12.7983 12.4445H13.2983C13.2983 12.0454 13.2196 11.6843 13.0533 11.369L12.611 11.6022ZM10.9999 3.13335C6.66195 3.13335 3.13318 6.66208 3.13318 11H3.63318C3.63318 6.93822 6.93809 3.63335 10.9999 3.63335V3.13335ZM18.8666 11C18.8666 6.66212 15.3378 3.13335 10.9999 3.13335V3.63335C15.0617 3.63335 18.3666 6.93826 18.3666 11H18.8666ZM10.9999 18.8667C15.3378 18.8667 18.8666 15.3379 18.8666 11H18.3666C18.3666 15.0618 15.0617 18.3667 10.9999 18.3667V18.8667ZM3.13318 11C3.13318 15.338 6.66195 18.8667 10.9999 18.8667V18.3667C6.93809 18.3667 3.63318 15.0618 3.63318 11H3.13318ZM10.9999 17.1952C7.58403 17.1952 4.80467 14.4159 4.80467 11H4.30467C4.30467 14.692 7.30789 17.6952 10.9999 17.6952V17.1952ZM17.1951 11C17.1951 14.4159 14.4157 17.1952 10.9999 17.1952V17.6952C14.6919 17.6952 17.6951 14.692 17.6951 11H17.1951ZM10.9999 4.80484C14.4157 4.80484 17.1951 7.5842 17.1951 11H17.6951C17.6951 7.30805 14.6918 4.30484 10.9999 4.30484V4.80484ZM4.80467 11C4.80467 7.5842 7.58407 4.80484 10.9999 4.80484V4.30484C7.30793 4.30484 4.30467 7.30805 4.30467 11H4.80467Z" fill="#777777"/>
</svg>
